<svg id="Capa_1" enable-background="new 0 0 512 512" height="512" viewBox="0 0 512 512" width="512" xmlns="http://www.w3.org/2000/svg"><g><path d="m452 80h-340.911l-5.492-30.6c-5.139-28.624-29.975-49.4-59.057-49.4h-26.54c-11.046 0-20 8.954-20 20s8.954 20 20 20h26.54c9.694 0 17.973 6.925 19.686 16.467 1.829 10.189 44.604 248.506 46.695 260.156-21.661 9.061-36.921 30.468-36.921 55.377 0 27.631 18.78 50.946 44.241 57.885-2.726 6.849-4.241 14.306-4.241 22.115 0 33.084 26.916 60 60 60s60-26.916 60-60c0-7.011-1.22-13.74-3.44-20h126.88c-2.22 6.26-3.44 12.989-3.44 20 0 33.084 26.916 60 60 60s60-26.916 60-60c0-9.252-2.108-18.019-5.864-25.853 3.623-3.62 5.864-8.622 5.864-14.147 0-11.046-8.954-20-20-20h-320c-11.028 0-20-8.972-20-20 0-11.012 8.947-19.972 19.953-19.998.008 0 .016.001.024.001.026 0 .052-.003.077-.003h275.946c27.543 0 51.446-18.613 58.177-45.282l39.973-151.895c.021-.079.041-.158.061-.237 1.188-4.749 1.79-9.656 1.79-14.586-.001-33.084-26.917-60-60.001-60zm-256 372c0 11.028-8.972 20-20 20s-20-8.972-20-20 8.972-20 20-20 20 8.972 20 20zm220 20c-11.028 0-20-8.972-20-20s8.972-20 20-20 20 8.972 20 20-8.972 20-20 20zm55.43-327.22-39.964 151.863c-.021.08-.041.159-.062.24-2.224 8.9-10.204 15.117-19.404 15.117h-259.27l-34.461-192h333.731c11.028 0 20 8.972 20 20 0 1.626-.191 3.233-.57 4.78z"/><path d="m336 196h-80c-11.046 0-20 8.954-20 20s8.954 20 20 20h80c11.046 0 20-8.954 20-20s-8.954-20-20-20z"/></g></svg>