<svg xmlns:dc="http://purl.org/dc/elements/1.1/" xmlns:cc="http://creativecommons.org/ns#" xmlns:rdf="http://www.w3.org/1999/02/22-rdf-syntax-ns#" xmlns:svg="http://www.w3.org/2000/svg" xmlns="http://www.w3.org/2000/svg" viewBox="0 0 50 50" preserveAspectRatio="xMidYMid meet"><metadata><rdf:RDF><cc:Work><dc:format>image/svg+xml</dc:format><dc:type rdf:resource="http://purl.org/dc/dcmitype/StillImage"/><dc:title>Jdenticon</dc:title><dc:creator><cc:Agent><dc:title>Daniel Mester Pirttijärvi</dc:title></cc:Agent></dc:creator><dc:source>https://github.com/dmester/jdenticon</dc:source><cc:license rdf:resource="https://github.com/dmester/jdenticon/blob/master/LICENSE"/></cc:Work></rdf:RDF></metadata><rect fill="transparent" width="50" height="50" x="0" y="0"/><path fill="#e5e5e5" d="M15 7a4,4 0 1,1 8,0a4,4 0 1,1 -8,0M27 7a4,4 0 1,1 8,0a4,4 0 1,1 -8,0M27 43a4,4 0 1,1 8,0a4,4 0 1,1 -8,0M15 43a4,4 0 1,1 8,0a4,4 0 1,1 -8,0M3 19a4,4 0 1,1 8,0a4,4 0 1,1 -8,0M39 19a4,4 0 1,1 8,0a4,4 0 1,1 -8,0M39 31a4,4 0 1,1 8,0a4,4 0 1,1 -8,0M3 31a4,4 0 1,1 8,0a4,4 0 1,1 -8,0"/><path fill="#4c4c4c" d="M1 1L13 1L13 7ZM49 1L49 13L43 13ZM49 49L37 49L37 43ZM1 49L1 37L7 37Z"/><path fill="#ccaf66" d="M13 13L25 13L25 21.4L17.8 17.8L21.4 25L13 25ZM37 13L37 25L28.6 25L32.2 17.8L25 21.4L25 13ZM37 37L25 37L25 28.6L32.2 32.2L28.6 25L37 25ZM13 37L13 25L21.4 25L17.8 32.2L25 28.6L25 37Z"/></svg>